G04 #@! TF.FileFunction,Copper,L2,Bot,Signal*
%FSLAX46Y46*%
G04 Gerber Fmt 4.6, Leading zero omitted, Abs format (unit mm)*
G04 Created by KiCad (PCBNEW 4.0.7) date 07/17/18 21:03:51*
%MOMM*%
%LPD*%
G01*
G04 APERTURE LIST*
%ADD10C,0.100000*%
%ADD11C,2.600000*%
%ADD12C,0.600000*%
%ADD13C,0.250000*%
%ADD14C,0.200000*%
G04 APERTURE END LIST*
D10*
D11*
X100000000Y-111000000D03*
D12*
X107000000Y-94000000D03*
X105000000Y-94000000D03*
X103000000Y-94000000D03*
X101000000Y-94000000D03*
X99000000Y-94000000D03*
X97000000Y-94000000D03*
X95000000Y-94000000D03*
X93000000Y-94000000D03*
X107000000Y-96000000D03*
X105000000Y-96000000D03*
X103000000Y-96000000D03*
X101000000Y-96000000D03*
X99000000Y-96000000D03*
X97000000Y-96000000D03*
X95000000Y-96000000D03*
X93000000Y-96000000D03*
X107000000Y-116000000D03*
X105000000Y-116000000D03*
X103000000Y-116000000D03*
X101000000Y-116000000D03*
X99000000Y-116000000D03*
X97000000Y-116000000D03*
X95000000Y-116000000D03*
X93000000Y-116000000D03*
X107000000Y-114000000D03*
X105000000Y-114000000D03*
X103000000Y-114000000D03*
X101000000Y-114000000D03*
X99000000Y-114000000D03*
X97000000Y-114000000D03*
X95000000Y-114000000D03*
X93000000Y-114000000D03*
X107000000Y-112000000D03*
X105000000Y-112000000D03*
X103000000Y-112000000D03*
X97000000Y-112000000D03*
X95000000Y-112000000D03*
X93000000Y-112000000D03*
X107000000Y-110000000D03*
X105000000Y-110000000D03*
X103000000Y-110000000D03*
X97000000Y-110000000D03*
X95000000Y-110000000D03*
X93000000Y-110000000D03*
X107000000Y-108000000D03*
X105000000Y-108000000D03*
X103000000Y-108000000D03*
X97000000Y-108000000D03*
X95000000Y-108000000D03*
X93000000Y-108000000D03*
X107000000Y-106000000D03*
X105000000Y-106000000D03*
X103000000Y-106000000D03*
X93000000Y-106000000D03*
X95000000Y-106000000D03*
X97000000Y-106000000D03*
X107000000Y-104000000D03*
X105000000Y-104000000D03*
X103000000Y-104000000D03*
X93000000Y-104000000D03*
X95000000Y-104000000D03*
X97000000Y-104000000D03*
X93000000Y-102000000D03*
X95000000Y-102000000D03*
X97000000Y-102000000D03*
X93000000Y-100010000D03*
X93000000Y-98000000D03*
X95000000Y-98000000D03*
X97000000Y-98000000D03*
X99000000Y-98000000D03*
X101000000Y-98000000D03*
X107000000Y-98000000D03*
X105000000Y-98000000D03*
X103000000Y-98000000D03*
X103000000Y-102000000D03*
X105000000Y-102000000D03*
X107000000Y-102000000D03*
X107000000Y-100000000D03*
X105000000Y-100000000D03*
X95000000Y-100000000D03*
X97000000Y-100000000D03*
X103000000Y-100000000D03*
D13*
X103000000Y-98030000D02*
X103030000Y-98030000D01*
X107000000Y-101970000D02*
X106970000Y-102000000D01*
D14*
G36*
X107964868Y-80771108D02*
X114717157Y-85282843D01*
X119228892Y-92035132D01*
X120813203Y-100000000D01*
X119228892Y-107964868D01*
X114717157Y-114717157D01*
X107964868Y-119228892D01*
X100000000Y-120813203D01*
X92035132Y-119228892D01*
X85282843Y-114717157D01*
X83010840Y-111316863D01*
X98399723Y-111316863D01*
X98642795Y-111905143D01*
X99092489Y-112355623D01*
X99680344Y-112599722D01*
X100316863Y-112600277D01*
X100905143Y-112357205D01*
X101355623Y-111907511D01*
X101599722Y-111319656D01*
X101600277Y-110683137D01*
X101357205Y-110094857D01*
X100907511Y-109644377D01*
X100319656Y-109400278D01*
X99683137Y-109399723D01*
X99094857Y-109642795D01*
X98644377Y-110092489D01*
X98400278Y-110680344D01*
X98399723Y-111316863D01*
X83010840Y-111316863D01*
X80771108Y-107964868D01*
X79186797Y-100000000D01*
X80771108Y-92035132D01*
X85282843Y-85282843D01*
X92035132Y-80771108D01*
X100000000Y-79186797D01*
X107964868Y-80771108D01*
X107964868Y-80771108D01*
G37*
X107964868Y-80771108D02*
X114717157Y-85282843D01*
X119228892Y-92035132D01*
X120813203Y-100000000D01*
X119228892Y-107964868D01*
X114717157Y-114717157D01*
X107964868Y-119228892D01*
X100000000Y-120813203D01*
X92035132Y-119228892D01*
X85282843Y-114717157D01*
X83010840Y-111316863D01*
X98399723Y-111316863D01*
X98642795Y-111905143D01*
X99092489Y-112355623D01*
X99680344Y-112599722D01*
X100316863Y-112600277D01*
X100905143Y-112357205D01*
X101355623Y-111907511D01*
X101599722Y-111319656D01*
X101600277Y-110683137D01*
X101357205Y-110094857D01*
X100907511Y-109644377D01*
X100319656Y-109400278D01*
X99683137Y-109399723D01*
X99094857Y-109642795D01*
X98644377Y-110092489D01*
X98400278Y-110680344D01*
X98399723Y-111316863D01*
X83010840Y-111316863D01*
X80771108Y-107964868D01*
X79186797Y-100000000D01*
X80771108Y-92035132D01*
X85282843Y-85282843D01*
X92035132Y-80771108D01*
X100000000Y-79186797D01*
X107964868Y-80771108D01*
M02*
