M48
INCH,TZ
T1C0.016
T2C0.067
%
G90
G05
T1
X36614Y-37008
X36614Y-37795
X36614Y-38583
X36614Y-39374
X36614Y-40157
X36614Y-40945
X36614Y-41732
X36614Y-42520
X36614Y-43307
X36614Y-44094
X36614Y-44882
X36614Y-45669
X37402Y-37008
X37402Y-37795
X37402Y-38583
X37402Y-39370
X37402Y-40157
X37402Y-40945
X37402Y-41732
X37402Y-42520
X37402Y-43307
X37402Y-44094
X37402Y-44882
X37402Y-45669
X38189Y-37008
X38189Y-37795
X38189Y-38583
X38189Y-39370
X38189Y-40157
X38189Y-40945
X38189Y-41732
X38189Y-42520
X38189Y-43307
X38189Y-44094
X38189Y-44882
X38189Y-45669
X38976Y-37008
X38976Y-37795
X38976Y-38583
X38976Y-44882
X38976Y-45669
X39764Y-37008
X39764Y-37795
X39764Y-38583
X39764Y-44882
X39764Y-45669
X40551Y-37008
X40551Y-37795
X40551Y-38583
X40551Y-39370
X40551Y-40157
X40551Y-40945
X40551Y-41732
X40551Y-42520
X40551Y-43307
X40551Y-44094
X40551Y-44882
X40551Y-45669
X41339Y-37008
X41339Y-37795
X41339Y-38583
X41339Y-39370
X41339Y-40157
X41339Y-40945
X41339Y-41732
X41339Y-42520
X41339Y-43307
X41339Y-44094
X41339Y-44882
X41339Y-45669
X42126Y-37008
X42126Y-37795
X42126Y-38583
X42126Y-39370
X42126Y-40157
X42126Y-40945
X42126Y-41732
X42126Y-42520
X42126Y-43307
X42126Y-44094
X42126Y-44882
X42126Y-45669
T2
X39370Y-43701
T0
M30
